<svg width="309" height="311" viewBox="0 0 309 311" fill="none" xmlns="http://www.w3.org/2000/svg">
<path d="M185 216.9L154.5 309L124 216.9L78.25 232.25L93.5 186.2L2 155.5L93.5 124.8L78.25 78.75L124 94.1L154.5 2L185 94.1L230.75 78.75L215.5 124.8L307 155.5L215.5 186.2L230.75 232.25L185 216.9Z" fill="#FF13C4"/>
<path d="M154.5 2V309M154.5 2L230.75 232.25L2 155.5M154.5 2L78.25 232.25L307 155.5M154.5 309L230.75 78.75L2 155.5M154.5 309L78.25 78.75L307 155.5M2 155.5H307" stroke="white" stroke-width="3" stroke-linejoin="round"/>
</svg>
