<svg width="1440" height="355" viewBox="0 0 1440 355" fill="none" xmlns="http://www.w3.org/2000/svg">
<path d="M221.5 126.5C188.11 284.121 33.5 345.667 -51 355L-34.5 -88H1487C1537.5 -27.3333 1648.74 143.224 1511.5 215.5C1342.5 304.5 1235.67 133.172 1200.5 85.5C1178 55 1171.36 165.336 1061.5 196C876 247.778 785.785 140.294 685 63C618.5 12 604.5 174.5 428.5 174.5C230 174.5 255.5 -34 221.5 126.5Z" fill="#B40AA3"/>
<path d="M221.5 126.5C188.11 284.121 33.5 345.667 -51 355L-34.5 -88H1487C1537.5 -27.3333 1648.74 143.224 1511.5 215.5C1342.5 304.5 1235.67 133.172 1200.5 85.5C1178 55 1171.36 165.336 1061.5 196C876 247.778 785.785 140.294 685 63C618.5 12 604.5 174.5 428.5 174.5C230 174.5 255.5 -34 221.5 126.5Z" fill="url(#paint0_linear_94_809)"/>
<path d="M201 40.5C185.8 200.9 19.5 283 -70.5 275.5L-42.5 -164H1479C1529.5 -103.333 1642.56 70.7832 1503.5 139.5C1332.5 224 1218.32 31.5 1199 -24.5C1182.52 -72.2503 1144.36 78.3355 1034.5 109C828.5 166.5 751.5 31.5 679 -31C615.525 -85.7195 596.5 98.5 420.5 98.5C222 98.5 220 -160 201 40.5Z" fill="#B40AA3"/>
<path d="M201 40.5C185.8 200.9 19.5 283 -70.5 275.5L-42.5 -164H1479C1529.5 -103.333 1642.56 70.7832 1503.5 139.5C1332.5 224 1218.32 31.5 1199 -24.5C1182.52 -72.2503 1144.36 78.3355 1034.5 109C828.5 166.5 751.5 31.5 679 -31C615.525 -85.7195 596.5 98.5 420.5 98.5C222 98.5 220 -160 201 40.5Z" fill="url(#paint1_linear_94_809)"/>
<path d="M149 96C113.345 264.295 -49.7693 299.035 -140 309L-122.381 -164H1502.31C1556.23 -99.225 1661.91 61.9453 1528.47 160.053C1383 267 1276.55 81.9005 1239 31C1214.97 -1.56544 1223.05 176.767 1032 197.5C901.162 211.698 797.12 134.528 689.5 52C618.49 -2.45372 563.936 139.233 376 139.233C164.038 139.233 185.306 -75.3691 149 96Z" stroke="white" stroke-width="3" stroke-linecap="round"/>
<defs>
<linearGradient id="paint0_linear_94_809" x1="763" y1="280.5" x2="754" y2="-159" gradientUnits="userSpaceOnUse">
<stop offset="0.09" stop-color="#FF13C4"/>
<stop offset="0.3" stop-color="#FB07E2"/>
<stop offset="0.67" stop-color="#BB11F9"/>
<stop offset="0.88" stop-color="#8A0FB7"/>
</linearGradient>
<linearGradient id="paint1_linear_94_809" x1="750" y1="-196" x2="755" y2="196.5" gradientUnits="userSpaceOnUse">
<stop offset="0.09" stop-color="#FF13C4"/>
<stop offset="0.3" stop-color="#FB07E2"/>
<stop offset="0.67" stop-color="#BB11F9"/>
<stop offset="0.88" stop-color="#8A0FB7"/>
</linearGradient>
</defs>
</svg>
